%
M48
M72
T01C0.02400
T02C0.04000
T03C0.12992
T04C0.13000
%
T01
X51800Y31800
X98050Y84300
X91800Y114300
X106800Y129300
X86800Y151800
X100550Y175550
X136800Y156800
X156800Y186800
X196800Y171800
X141800Y81800
X161800Y21800
X46800Y181800
T02
X66800Y166600
X66800Y155700
X66800Y144800
X66800Y134000
X66800Y123100
X66800Y112200
X66800Y101400
X66800Y90500
X66800Y79600
X66800Y68800
X66800Y57900
X66800Y47000
X76800Y41600
X76800Y52500
X76800Y63300
X76800Y74200
X76800Y85100
X76800Y95900
X76800Y106800
X76800Y117700
X76800Y128500
X76800Y139400
X76800Y150300
X76800Y161100
X76800Y172000
X116800Y176800
X116800Y166800
X116800Y156800
X116800Y146800
X116800Y136800
X116800Y126800
X116800Y116800
X116800Y106800
X116800Y96800
X116800Y86800
X116800Y76800
X116800Y66800
X116800Y56800
X116800Y26800
X116800Y16800
X106800Y16800
X96800Y16800
X96800Y26800
X106800Y26800
X176800Y56800
X176800Y66800
X176800Y76800
X176800Y86800
X176800Y96800
X176800Y106800
X176800Y116800
X176800Y126800
X176800Y136800
X176800Y146800
X176800Y156800
X176800Y166800
X176800Y176800
X176800Y186800
X176800Y196800
X201800Y141800
X201800Y131800
X201800Y121800
X201800Y111800
X201800Y101800
X201800Y91800
X201800Y81800
X201800Y71800
X201800Y61800
X201800Y51800
X116800Y186800
X116800Y196800
T03
X201800Y191800
X201800Y21800
T04
X71800Y14200
X71800Y199400
M30
