G75*
%MOIN*%
%OFA0B0*%
%FSLAX25Y25*%
%IPPOS*%
%LPD*%
%AMOC8*
5,1,8,0,0,1.08239X$1,22.5*
%
%ADD10C,0.06000*%
%ADD11C,0.23000*%
%ADD12OC8,0.06000*%
%ADD13C,0.20000*%
%ADD14C,0.06000*%
%ADD15C,0.05000*%
%ADD16C,0.01600*%
%ADD17C,0.04000*%
%ADD18C,0.03000*%
D10*
X0096800Y0016800D03*
X0116800Y0056800D03*
X0116800Y0066800D03*
X0116800Y0076800D03*
X0116800Y0086800D03*
X0116800Y0096800D03*
X0116800Y0106800D03*
X0116800Y0116800D03*
X0116800Y0126800D03*
X0116800Y0136800D03*
X0116800Y0146800D03*
X0116800Y0156800D03*
X0116800Y0166800D03*
X0116800Y0176800D03*
X0116800Y0186800D03*
X0116800Y0196800D03*
X0176800Y0196800D03*
X0176800Y0186800D03*
X0176800Y0176800D03*
X0176800Y0166800D03*
X0176800Y0156800D03*
X0176800Y0146800D03*
X0176800Y0136800D03*
X0176800Y0126800D03*
X0176800Y0116800D03*
X0176800Y0106800D03*
X0176800Y0096800D03*
X0176800Y0086800D03*
X0176800Y0076800D03*
X0176800Y0066800D03*
X0176800Y0056800D03*
D11*
X0201800Y0021800D03*
X0201800Y0191800D03*
D12*
X0076800Y0172000D03*
X0076800Y0161100D03*
X0076800Y0150300D03*
X0076800Y0139400D03*
X0076800Y0128500D03*
X0076800Y0117700D03*
X0076800Y0106800D03*
X0066800Y0101400D03*
X0066800Y0112200D03*
X0066800Y0123100D03*
X0066800Y0134000D03*
X0066800Y0144800D03*
X0066800Y0155700D03*
X0066800Y0166600D03*
X0076800Y0095900D03*
X0076800Y0085100D03*
X0076800Y0074200D03*
X0076800Y0063300D03*
X0076800Y0052500D03*
X0076800Y0041600D03*
X0066800Y0047000D03*
X0066800Y0057900D03*
X0066800Y0068800D03*
X0066800Y0079600D03*
X0066800Y0090500D03*
X0096800Y0026800D03*
X0106800Y0026800D03*
X0106800Y0016800D03*
X0116800Y0016800D03*
X0116800Y0026800D03*
D13*
X0071800Y0014200D03*
X0071800Y0199400D03*
D14*
X0198800Y0141800D02*
X0204800Y0141800D01*
X0204800Y0131800D02*
X0198800Y0131800D01*
X0198800Y0121800D02*
X0204800Y0121800D01*
X0204800Y0111800D02*
X0198800Y0111800D01*
X0198800Y0101800D02*
X0204800Y0101800D01*
X0204800Y0091800D02*
X0198800Y0091800D01*
X0198800Y0081800D02*
X0204800Y0081800D01*
X0204800Y0071800D02*
X0198800Y0071800D01*
X0198800Y0061800D02*
X0204800Y0061800D01*
X0204800Y0051800D02*
X0198800Y0051800D01*
D15*
X0201800Y0101800D02*
X0193050Y0101800D01*
X0188050Y0106800D01*
X0188050Y0156800D01*
X0178050Y0166800D01*
X0176800Y0166800D01*
D16*
X0031600Y0206961D02*
X0031600Y0006600D01*
X0061870Y0006600D01*
X0060245Y0009414D01*
X0059400Y0012567D01*
X0059400Y0015832D01*
X0060245Y0018986D01*
X0061878Y0021814D01*
X0064186Y0024122D01*
X0067014Y0025755D01*
X0070167Y0026600D01*
X0073432Y0026600D01*
X0076586Y0025755D01*
X0079414Y0024122D01*
X0081722Y0021814D01*
X0083355Y0018986D01*
X0084200Y0015832D01*
X0084200Y0012567D01*
X0083355Y0009414D01*
X0081730Y0006600D01*
X0215701Y0006600D01*
X0215701Y0206961D01*
X0081753Y0206961D01*
X0083355Y0204186D01*
X0084200Y0201032D01*
X0084200Y0197767D01*
X0083355Y0194614D01*
X0081722Y0191786D01*
X0079414Y0189478D01*
X0076586Y0187845D01*
X0073432Y0187000D01*
X0070167Y0187000D01*
X0067014Y0187845D01*
X0064186Y0189478D01*
X0061878Y0191786D01*
X0060245Y0194614D01*
X0059400Y0197767D01*
X0059400Y0201032D01*
X0060245Y0204186D01*
X0061847Y0206961D01*
X0031600Y0206961D01*
X0031600Y0206409D02*
X0061529Y0206409D01*
X0060606Y0204811D02*
X0031600Y0204811D01*
X0031600Y0203212D02*
X0059984Y0203212D01*
X0059556Y0201614D02*
X0031600Y0201614D01*
X0031600Y0200015D02*
X0059400Y0200015D01*
X0059400Y0198417D02*
X0031600Y0198417D01*
X0031600Y0196818D02*
X0059654Y0196818D01*
X0060083Y0195220D02*
X0031600Y0195220D01*
X0031600Y0193621D02*
X0060818Y0193621D01*
X0061741Y0192023D02*
X0031600Y0192023D01*
X0031600Y0190424D02*
X0063239Y0190424D01*
X0065315Y0188826D02*
X0031600Y0188826D01*
X0031600Y0187227D02*
X0069319Y0187227D01*
X0068524Y0185700D02*
X0067091Y0185106D01*
X0065994Y0184009D01*
X0053494Y0171509D01*
X0052900Y0170076D01*
X0052900Y0057274D01*
X0053494Y0055841D01*
X0054591Y0054744D01*
X0061400Y0047935D01*
X0061400Y0044763D01*
X0064563Y0041600D01*
X0069037Y0041600D01*
X0072200Y0044763D01*
X0072200Y0049237D01*
X0069037Y0052400D01*
X0067965Y0052400D01*
X0067865Y0052500D01*
X0069037Y0052500D01*
X0072200Y0055663D01*
X0072200Y0060137D01*
X0069037Y0063300D01*
X0064563Y0063300D01*
X0061400Y0060137D01*
X0061400Y0058965D01*
X0060700Y0059665D01*
X0060700Y0167685D01*
X0070915Y0177900D01*
X0096761Y0177900D01*
X0096150Y0176425D01*
X0096150Y0175700D01*
X0080737Y0175700D01*
X0079037Y0177400D01*
X0074563Y0177400D01*
X0071400Y0174237D01*
X0071400Y0169763D01*
X0074563Y0166600D01*
X0079037Y0166600D01*
X0080337Y0167900D01*
X0101326Y0167900D01*
X0102759Y0168494D01*
X0102900Y0168635D01*
X0102900Y0165566D01*
X0102576Y0165700D01*
X0079837Y0165700D01*
X0079037Y0166500D01*
X0074563Y0166500D01*
X0071400Y0163337D01*
X0071400Y0158863D01*
X0074563Y0155700D01*
X0071400Y0152537D01*
X0071400Y0148063D01*
X0074563Y0144900D01*
X0078185Y0144900D01*
X0078285Y0144800D01*
X0074563Y0144800D01*
X0071400Y0141637D01*
X0071400Y0137163D01*
X0074563Y0134000D01*
X0076585Y0134000D01*
X0076685Y0133900D01*
X0074563Y0133900D01*
X0071400Y0130737D01*
X0071400Y0126263D01*
X0074563Y0123100D01*
X0071400Y0119937D01*
X0071400Y0115463D01*
X0074563Y0112300D01*
X0079037Y0112300D01*
X0079286Y0112549D01*
X0082900Y0108935D01*
X0082900Y0053415D01*
X0082200Y0052715D01*
X0082200Y0054737D01*
X0079037Y0057900D01*
X0074563Y0057900D01*
X0071400Y0054737D01*
X0071400Y0050263D01*
X0074563Y0047100D01*
X0076585Y0047100D01*
X0076485Y0047000D01*
X0074563Y0047000D01*
X0071400Y0043837D01*
X0071400Y0039363D01*
X0074563Y0036200D01*
X0079037Y0036200D01*
X0082200Y0039363D01*
X0082200Y0041685D01*
X0089009Y0048494D01*
X0090106Y0049591D01*
X0090700Y0051024D01*
X0090700Y0074885D01*
X0112244Y0053341D01*
X0113341Y0052244D01*
X0114774Y0051650D01*
X0115122Y0051650D01*
X0115726Y0051400D01*
X0115885Y0051400D01*
X0096685Y0032200D01*
X0094563Y0032200D01*
X0091400Y0029037D01*
X0091400Y0024563D01*
X0094563Y0021400D01*
X0095424Y0021400D01*
X0094957Y0021248D01*
X0094284Y0020905D01*
X0093673Y0020461D01*
X0093139Y0019927D01*
X0092695Y0019316D01*
X0092352Y0018643D01*
X0092118Y0017924D01*
X0092000Y0017178D01*
X0092000Y0017000D01*
X0096600Y0017000D01*
X0096600Y0016600D01*
X0097000Y0016600D01*
X0097000Y0017000D01*
X0101600Y0017000D01*
X0101600Y0017178D01*
X0101482Y0017924D01*
X0101248Y0018643D01*
X0100905Y0019316D01*
X0100461Y0019927D01*
X0099927Y0020461D01*
X0099316Y0020905D01*
X0098643Y0021248D01*
X0098176Y0021400D01*
X0099037Y0021400D01*
X0101800Y0024163D01*
X0104563Y0021400D01*
X0104612Y0021400D01*
X0102000Y0018788D01*
X0102000Y0017000D01*
X0106600Y0017000D01*
X0106600Y0016600D01*
X0107000Y0016600D01*
X0107000Y0017000D01*
X0111600Y0017000D01*
X0111600Y0018788D01*
X0108988Y0021400D01*
X0109037Y0021400D01*
X0111800Y0024163D01*
X0114563Y0021400D01*
X0114612Y0021400D01*
X0112000Y0018788D01*
X0112000Y0017000D01*
X0116600Y0017000D01*
X0116600Y0016600D01*
X0117000Y0016600D01*
X0117000Y0017000D01*
X0121600Y0017000D01*
X0121600Y0018788D01*
X0118988Y0021400D01*
X0119037Y0021400D01*
X0122200Y0024563D01*
X0122200Y0029037D01*
X0119037Y0032200D01*
X0114563Y0032200D01*
X0111800Y0029437D01*
X0109037Y0032200D01*
X0107715Y0032200D01*
X0125259Y0049744D01*
X0126356Y0050841D01*
X0126950Y0052274D01*
X0126950Y0060076D01*
X0126356Y0061509D01*
X0122182Y0065683D01*
X0122200Y0065726D01*
X0122200Y0067874D01*
X0121378Y0069859D01*
X0119859Y0071378D01*
X0118840Y0071800D01*
X0119859Y0072222D01*
X0121378Y0073741D01*
X0122200Y0075726D01*
X0122200Y0077874D01*
X0121378Y0079859D01*
X0119859Y0081378D01*
X0118840Y0081800D01*
X0119859Y0082222D01*
X0121378Y0083741D01*
X0122200Y0085726D01*
X0122200Y0087874D01*
X0121378Y0089859D01*
X0119859Y0091378D01*
X0118840Y0091800D01*
X0119859Y0092222D01*
X0121378Y0093741D01*
X0122200Y0095726D01*
X0122200Y0097874D01*
X0121378Y0099859D01*
X0119859Y0101378D01*
X0118840Y0101800D01*
X0119859Y0102222D01*
X0121378Y0103741D01*
X0122200Y0105726D01*
X0122200Y0107874D01*
X0121378Y0109859D01*
X0119859Y0111378D01*
X0118840Y0111800D01*
X0119859Y0112222D01*
X0121378Y0113741D01*
X0122200Y0115726D01*
X0122200Y0117874D01*
X0121378Y0119859D01*
X0119859Y0121378D01*
X0118840Y0121800D01*
X0119859Y0122222D01*
X0121378Y0123741D01*
X0122200Y0125726D01*
X0122200Y0127874D01*
X0121378Y0129859D01*
X0119859Y0131378D01*
X0118840Y0131800D01*
X0119859Y0132222D01*
X0121378Y0133741D01*
X0122200Y0135726D01*
X0122200Y0137874D01*
X0121378Y0139859D01*
X0119859Y0141378D01*
X0118840Y0141800D01*
X0119859Y0142222D01*
X0121378Y0143741D01*
X0122200Y0145726D01*
X0122200Y0147874D01*
X0121378Y0149859D01*
X0119859Y0151378D01*
X0118840Y0151800D01*
X0119859Y0152222D01*
X0121378Y0153741D01*
X0122200Y0155726D01*
X0122200Y0157874D01*
X0121378Y0159859D01*
X0119859Y0161378D01*
X0118007Y0162145D01*
X0118643Y0162352D01*
X0119316Y0162695D01*
X0119927Y0163139D01*
X0120461Y0163673D01*
X0120905Y0164284D01*
X0121248Y0164957D01*
X0121482Y0165676D01*
X0121600Y0166422D01*
X0121600Y0166600D01*
X0117000Y0166600D01*
X0117000Y0167000D01*
X0121600Y0167000D01*
X0121600Y0167178D01*
X0121482Y0167924D01*
X0121248Y0168643D01*
X0120905Y0169316D01*
X0120461Y0169927D01*
X0119927Y0170461D01*
X0119316Y0170905D01*
X0118643Y0171248D01*
X0118007Y0171455D01*
X0119859Y0172222D01*
X0121378Y0173741D01*
X0122200Y0175726D01*
X0122200Y0177874D01*
X0121378Y0179859D01*
X0119859Y0181378D01*
X0118840Y0181800D01*
X0119859Y0182222D01*
X0121378Y0183741D01*
X0122200Y0185726D01*
X0122200Y0187874D01*
X0121378Y0189859D01*
X0119859Y0191378D01*
X0118840Y0191800D01*
X0119859Y0192222D01*
X0121378Y0193741D01*
X0122200Y0195726D01*
X0122200Y0197874D01*
X0121378Y0199859D01*
X0119859Y0201378D01*
X0117874Y0202200D01*
X0115726Y0202200D01*
X0113741Y0201378D01*
X0112222Y0199859D01*
X0111400Y0197874D01*
X0111400Y0195726D01*
X0112222Y0193741D01*
X0113741Y0192222D01*
X0114760Y0191800D01*
X0113741Y0191378D01*
X0112222Y0189859D01*
X0111400Y0187874D01*
X0111400Y0185726D01*
X0112222Y0183741D01*
X0113741Y0182222D01*
X0114760Y0181800D01*
X0113741Y0181378D01*
X0112222Y0179859D01*
X0111400Y0177874D01*
X0111400Y0175726D01*
X0112222Y0173741D01*
X0113741Y0172222D01*
X0115593Y0171455D01*
X0114957Y0171248D01*
X0114284Y0170905D01*
X0113673Y0170461D01*
X0113139Y0169927D01*
X0112695Y0169316D01*
X0112352Y0168643D01*
X0112118Y0167924D01*
X0112000Y0167178D01*
X0112000Y0167000D01*
X0116600Y0167000D01*
X0116600Y0166600D01*
X0112000Y0166600D01*
X0112000Y0166422D01*
X0112118Y0165676D01*
X0112352Y0164957D01*
X0112695Y0164284D01*
X0113139Y0163673D01*
X0113673Y0163139D01*
X0114284Y0162695D01*
X0114957Y0162352D01*
X0115593Y0162145D01*
X0113741Y0161378D01*
X0112222Y0159859D01*
X0111400Y0157874D01*
X0111400Y0155726D01*
X0111761Y0154854D01*
X0110700Y0155915D01*
X0110700Y0182576D01*
X0110106Y0184009D01*
X0109009Y0185106D01*
X0107576Y0185700D01*
X0068524Y0185700D01*
X0068352Y0185629D02*
X0031600Y0185629D01*
X0031600Y0184030D02*
X0066015Y0184030D01*
X0064416Y0182432D02*
X0031600Y0182432D01*
X0031600Y0180833D02*
X0062818Y0180833D01*
X0061219Y0179235D02*
X0031600Y0179235D01*
X0031600Y0177636D02*
X0059621Y0177636D01*
X0058022Y0176038D02*
X0031600Y0176038D01*
X0031600Y0174439D02*
X0056424Y0174439D01*
X0054825Y0172841D02*
X0031600Y0172841D01*
X0031600Y0171242D02*
X0053383Y0171242D01*
X0052900Y0169644D02*
X0031600Y0169644D01*
X0031600Y0168045D02*
X0052900Y0168045D01*
X0052900Y0166447D02*
X0031600Y0166447D01*
X0031600Y0164848D02*
X0052900Y0164848D01*
X0052900Y0163250D02*
X0031600Y0163250D01*
X0031600Y0161651D02*
X0052900Y0161651D01*
X0052900Y0160053D02*
X0031600Y0160053D01*
X0031600Y0158454D02*
X0052900Y0158454D01*
X0052900Y0156856D02*
X0031600Y0156856D01*
X0031600Y0155257D02*
X0052900Y0155257D01*
X0052900Y0153659D02*
X0031600Y0153659D01*
X0031600Y0152060D02*
X0052900Y0152060D01*
X0052900Y0150462D02*
X0031600Y0150462D01*
X0031600Y0148863D02*
X0052900Y0148863D01*
X0052900Y0147265D02*
X0031600Y0147265D01*
X0031600Y0145666D02*
X0052900Y0145666D01*
X0052900Y0144068D02*
X0031600Y0144068D01*
X0031600Y0142469D02*
X0052900Y0142469D01*
X0052900Y0140870D02*
X0031600Y0140870D01*
X0031600Y0139272D02*
X0052900Y0139272D01*
X0052900Y0137673D02*
X0031600Y0137673D01*
X0031600Y0136075D02*
X0052900Y0136075D01*
X0052900Y0134476D02*
X0031600Y0134476D01*
X0031600Y0132878D02*
X0052900Y0132878D01*
X0052900Y0131279D02*
X0031600Y0131279D01*
X0031600Y0129681D02*
X0052900Y0129681D01*
X0052900Y0128082D02*
X0031600Y0128082D01*
X0031600Y0126484D02*
X0052900Y0126484D01*
X0052900Y0124885D02*
X0031600Y0124885D01*
X0031600Y0123287D02*
X0052900Y0123287D01*
X0052900Y0121688D02*
X0031600Y0121688D01*
X0031600Y0120090D02*
X0052900Y0120090D01*
X0052900Y0118491D02*
X0031600Y0118491D01*
X0031600Y0116893D02*
X0052900Y0116893D01*
X0052900Y0115294D02*
X0031600Y0115294D01*
X0031600Y0113696D02*
X0052900Y0113696D01*
X0052900Y0112097D02*
X0031600Y0112097D01*
X0031600Y0110499D02*
X0052900Y0110499D01*
X0052900Y0108900D02*
X0031600Y0108900D01*
X0031600Y0107302D02*
X0052900Y0107302D01*
X0052900Y0105703D02*
X0031600Y0105703D01*
X0031600Y0104105D02*
X0052900Y0104105D01*
X0052900Y0102506D02*
X0031600Y0102506D01*
X0031600Y0100908D02*
X0052900Y0100908D01*
X0052900Y0099309D02*
X0031600Y0099309D01*
X0031600Y0097711D02*
X0052900Y0097711D01*
X0052900Y0096112D02*
X0031600Y0096112D01*
X0031600Y0094514D02*
X0052900Y0094514D01*
X0052900Y0092915D02*
X0031600Y0092915D01*
X0031600Y0091317D02*
X0052900Y0091317D01*
X0052900Y0089718D02*
X0031600Y0089718D01*
X0031600Y0088120D02*
X0052900Y0088120D01*
X0052900Y0086521D02*
X0031600Y0086521D01*
X0031600Y0084923D02*
X0052900Y0084923D01*
X0052900Y0083324D02*
X0031600Y0083324D01*
X0031600Y0081726D02*
X0052900Y0081726D01*
X0052900Y0080127D02*
X0031600Y0080127D01*
X0031600Y0078529D02*
X0052900Y0078529D01*
X0052900Y0076930D02*
X0031600Y0076930D01*
X0031600Y0075332D02*
X0052900Y0075332D01*
X0052900Y0073733D02*
X0031600Y0073733D01*
X0031600Y0072134D02*
X0052900Y0072134D01*
X0052900Y0070536D02*
X0031600Y0070536D01*
X0031600Y0068937D02*
X0052900Y0068937D01*
X0052900Y0067339D02*
X0031600Y0067339D01*
X0031600Y0065740D02*
X0052900Y0065740D01*
X0052900Y0064142D02*
X0031600Y0064142D01*
X0031600Y0062543D02*
X0052900Y0062543D01*
X0052900Y0060945D02*
X0031600Y0060945D01*
X0031600Y0059346D02*
X0052900Y0059346D01*
X0052900Y0057748D02*
X0031600Y0057748D01*
X0031600Y0056149D02*
X0053366Y0056149D01*
X0054784Y0054551D02*
X0031600Y0054551D01*
X0031600Y0052952D02*
X0056382Y0052952D01*
X0057981Y0051354D02*
X0031600Y0051354D01*
X0031600Y0049755D02*
X0059579Y0049755D01*
X0061178Y0048157D02*
X0031600Y0048157D01*
X0031600Y0046558D02*
X0061400Y0046558D01*
X0061400Y0044960D02*
X0031600Y0044960D01*
X0031600Y0043361D02*
X0062802Y0043361D01*
X0064400Y0041763D02*
X0031600Y0041763D01*
X0031600Y0040164D02*
X0071400Y0040164D01*
X0071400Y0041763D02*
X0069200Y0041763D01*
X0070798Y0043361D02*
X0071400Y0043361D01*
X0072200Y0044960D02*
X0072523Y0044960D01*
X0072200Y0046558D02*
X0074122Y0046558D01*
X0073506Y0048157D02*
X0072200Y0048157D01*
X0071908Y0049755D02*
X0071681Y0049755D01*
X0071400Y0051354D02*
X0070083Y0051354D01*
X0069489Y0052952D02*
X0071400Y0052952D01*
X0071400Y0054551D02*
X0071088Y0054551D01*
X0072200Y0056149D02*
X0072813Y0056149D01*
X0072200Y0057748D02*
X0074411Y0057748D01*
X0074563Y0057900D02*
X0079037Y0057900D01*
X0082200Y0061063D01*
X0082200Y0065537D01*
X0079037Y0068700D01*
X0074563Y0068700D01*
X0071400Y0065537D01*
X0071400Y0061063D01*
X0074563Y0057900D01*
X0073117Y0059346D02*
X0072200Y0059346D01*
X0071518Y0060945D02*
X0071392Y0060945D01*
X0071400Y0062543D02*
X0069793Y0062543D01*
X0069037Y0063400D02*
X0072200Y0066563D01*
X0072200Y0071037D01*
X0069037Y0074200D01*
X0072200Y0077363D01*
X0072200Y0081837D01*
X0069037Y0085000D01*
X0064563Y0085000D01*
X0061400Y0081837D01*
X0061400Y0077363D01*
X0064563Y0074200D01*
X0069037Y0074200D01*
X0064563Y0074200D01*
X0061400Y0071037D01*
X0061400Y0066563D01*
X0064563Y0063400D01*
X0069037Y0063400D01*
X0069779Y0064142D02*
X0071400Y0064142D01*
X0071377Y0065740D02*
X0071604Y0065740D01*
X0072200Y0067339D02*
X0073202Y0067339D01*
X0072200Y0068937D02*
X0074426Y0068937D01*
X0074563Y0068800D02*
X0079037Y0068800D01*
X0082200Y0071963D01*
X0082200Y0076437D01*
X0081950Y0076687D01*
X0081950Y0082613D01*
X0082200Y0082863D01*
X0082200Y0087337D01*
X0079037Y0090500D01*
X0082200Y0093663D01*
X0082200Y0098137D01*
X0079037Y0101300D01*
X0074563Y0101300D01*
X0071400Y0098137D01*
X0071400Y0093663D01*
X0074563Y0090500D01*
X0079037Y0090500D01*
X0074563Y0090500D01*
X0071400Y0087337D01*
X0071400Y0082863D01*
X0074150Y0080113D01*
X0074150Y0079187D01*
X0071400Y0076437D01*
X0071400Y0071963D01*
X0074563Y0068800D01*
X0072827Y0070536D02*
X0072200Y0070536D01*
X0071400Y0072134D02*
X0071102Y0072134D01*
X0071400Y0073733D02*
X0069504Y0073733D01*
X0070168Y0075332D02*
X0071400Y0075332D01*
X0071767Y0076930D02*
X0071893Y0076930D01*
X0072200Y0078529D02*
X0073492Y0078529D01*
X0074136Y0080127D02*
X0072200Y0080127D01*
X0072200Y0081726D02*
X0072538Y0081726D01*
X0071400Y0083324D02*
X0070713Y0083324D01*
X0071400Y0084923D02*
X0069114Y0084923D01*
X0068788Y0085700D02*
X0067000Y0085700D01*
X0067000Y0090300D01*
X0067000Y0090700D01*
X0066600Y0090700D01*
X0066600Y0095300D01*
X0064812Y0095300D01*
X0062000Y0092488D01*
X0062000Y0090700D01*
X0066600Y0090700D01*
X0066600Y0090300D01*
X0062000Y0090300D01*
X0062000Y0088512D01*
X0064812Y0085700D01*
X0066600Y0085700D01*
X0066600Y0090300D01*
X0067000Y0090300D01*
X0071600Y0090300D01*
X0071600Y0088512D01*
X0068788Y0085700D01*
X0069609Y0086521D02*
X0071400Y0086521D01*
X0071208Y0088120D02*
X0072183Y0088120D01*
X0071600Y0089718D02*
X0073781Y0089718D01*
X0073747Y0091317D02*
X0071600Y0091317D01*
X0071600Y0090700D02*
X0071600Y0092488D01*
X0068788Y0095300D01*
X0067000Y0095300D01*
X0067000Y0090700D01*
X0071600Y0090700D01*
X0071173Y0092915D02*
X0072148Y0092915D01*
X0071400Y0094514D02*
X0069575Y0094514D01*
X0068788Y0096600D02*
X0071600Y0099412D01*
X0071600Y0101200D01*
X0067000Y0101200D01*
X0067000Y0101600D01*
X0066600Y0101600D01*
X0066600Y0106200D01*
X0064812Y0106200D01*
X0062000Y0103388D01*
X0062000Y0101600D01*
X0066600Y0101600D01*
X0066600Y0101200D01*
X0062000Y0101200D01*
X0062000Y0099412D01*
X0064812Y0096600D01*
X0066600Y0096600D01*
X0066600Y0101200D01*
X0067000Y0101200D01*
X0067000Y0096600D01*
X0068788Y0096600D01*
X0069899Y0097711D02*
X0071400Y0097711D01*
X0071400Y0096112D02*
X0060700Y0096112D01*
X0060700Y0094514D02*
X0064025Y0094514D01*
X0062427Y0092915D02*
X0060700Y0092915D01*
X0060700Y0091317D02*
X0062000Y0091317D01*
X0062000Y0089718D02*
X0060700Y0089718D01*
X0060700Y0088120D02*
X0062392Y0088120D01*
X0063991Y0086521D02*
X0060700Y0086521D01*
X0060700Y0084923D02*
X0064486Y0084923D01*
X0062887Y0083324D02*
X0060700Y0083324D01*
X0060700Y0081726D02*
X0061400Y0081726D01*
X0061400Y0080127D02*
X0060700Y0080127D01*
X0060700Y0078529D02*
X0061400Y0078529D01*
X0061833Y0076930D02*
X0060700Y0076930D01*
X0060700Y0075332D02*
X0063432Y0075332D01*
X0064096Y0073733D02*
X0060700Y0073733D01*
X0060700Y0072134D02*
X0062498Y0072134D01*
X0061400Y0070536D02*
X0060700Y0070536D01*
X0060700Y0068937D02*
X0061400Y0068937D01*
X0061400Y0067339D02*
X0060700Y0067339D01*
X0060700Y0065740D02*
X0062223Y0065740D01*
X0060700Y0064142D02*
X0063821Y0064142D01*
X0063807Y0062543D02*
X0060700Y0062543D01*
X0060700Y0060945D02*
X0062208Y0060945D01*
X0061400Y0059346D02*
X0061019Y0059346D01*
X0079189Y0057748D02*
X0082900Y0057748D01*
X0082900Y0059346D02*
X0080483Y0059346D01*
X0082082Y0060945D02*
X0082900Y0060945D01*
X0082900Y0062543D02*
X0082200Y0062543D01*
X0082200Y0064142D02*
X0082900Y0064142D01*
X0082900Y0065740D02*
X0081996Y0065740D01*
X0082900Y0067339D02*
X0080398Y0067339D01*
X0079174Y0068937D02*
X0082900Y0068937D01*
X0082900Y0070536D02*
X0080773Y0070536D01*
X0082200Y0072134D02*
X0082900Y0072134D01*
X0082900Y0073733D02*
X0082200Y0073733D01*
X0082200Y0075332D02*
X0082900Y0075332D01*
X0082900Y0076930D02*
X0081950Y0076930D01*
X0081950Y0078529D02*
X0082900Y0078529D01*
X0082900Y0080127D02*
X0081950Y0080127D01*
X0081950Y0081726D02*
X0082900Y0081726D01*
X0082900Y0083324D02*
X0082200Y0083324D01*
X0082200Y0084923D02*
X0082900Y0084923D01*
X0082900Y0086521D02*
X0082200Y0086521D01*
X0082900Y0088120D02*
X0081417Y0088120D01*
X0082900Y0089718D02*
X0079819Y0089718D01*
X0079853Y0091317D02*
X0082900Y0091317D01*
X0082900Y0092915D02*
X0081452Y0092915D01*
X0082200Y0094514D02*
X0082900Y0094514D01*
X0082900Y0096112D02*
X0082200Y0096112D01*
X0082200Y0097711D02*
X0082900Y0097711D01*
X0082900Y0099309D02*
X0081028Y0099309D01*
X0079429Y0100908D02*
X0082900Y0100908D01*
X0082900Y0102506D02*
X0080143Y0102506D01*
X0079037Y0101400D02*
X0082200Y0104563D01*
X0082200Y0109037D01*
X0079037Y0112200D01*
X0074563Y0112200D01*
X0071400Y0109037D01*
X0071400Y0104563D01*
X0074563Y0101400D01*
X0079037Y0101400D01*
X0081741Y0104105D02*
X0082900Y0104105D01*
X0082900Y0105703D02*
X0082200Y0105703D01*
X0082200Y0107302D02*
X0082900Y0107302D01*
X0082900Y0108900D02*
X0082200Y0108900D01*
X0081336Y0110499D02*
X0080738Y0110499D01*
X0079737Y0112097D02*
X0079139Y0112097D01*
X0074461Y0112097D02*
X0067000Y0112097D01*
X0067000Y0112000D02*
X0067000Y0112400D01*
X0066600Y0112400D01*
X0066600Y0117000D01*
X0064812Y0117000D01*
X0062000Y0114188D01*
X0062000Y0112400D01*
X0066600Y0112400D01*
X0066600Y0112000D01*
X0062000Y0112000D01*
X0062000Y0110212D01*
X0064812Y0107400D01*
X0066600Y0107400D01*
X0066600Y0112000D01*
X0067000Y0112000D01*
X0071600Y0112000D01*
X0071600Y0110212D01*
X0068788Y0107400D01*
X0067000Y0107400D01*
X0067000Y0112000D01*
X0067000Y0112400D02*
X0071600Y0112400D01*
X0071600Y0114188D01*
X0068788Y0117000D01*
X0067000Y0117000D01*
X0067000Y0112400D01*
X0066600Y0112097D02*
X0060700Y0112097D01*
X0060700Y0110499D02*
X0062000Y0110499D01*
X0060700Y0108900D02*
X0063312Y0108900D01*
X0060700Y0107302D02*
X0071400Y0107302D01*
X0071400Y0108900D02*
X0070288Y0108900D01*
X0071600Y0110499D02*
X0072862Y0110499D01*
X0073167Y0113696D02*
X0071600Y0113696D01*
X0071569Y0115294D02*
X0070494Y0115294D01*
X0071400Y0116893D02*
X0068895Y0116893D01*
X0068788Y0118300D02*
X0067000Y0118300D01*
X0067000Y0122900D01*
X0067000Y0123300D01*
X0066600Y0123300D01*
X0066600Y0127900D01*
X0064812Y0127900D01*
X0062000Y0125088D01*
X0062000Y0123300D01*
X0066600Y0123300D01*
X0066600Y0122900D01*
X0062000Y0122900D01*
X0062000Y0121112D01*
X0064812Y0118300D01*
X0066600Y0118300D01*
X0066600Y0122900D01*
X0067000Y0122900D01*
X0071600Y0122900D01*
X0071600Y0121112D01*
X0068788Y0118300D01*
X0068980Y0118491D02*
X0071400Y0118491D01*
X0071553Y0120090D02*
X0070578Y0120090D01*
X0071600Y0121688D02*
X0073152Y0121688D01*
X0074563Y0123100D02*
X0079037Y0123100D01*
X0080265Y0121872D01*
X0081509Y0121356D01*
X0082606Y0120259D01*
X0087485Y0115380D01*
X0088070Y0116792D01*
X0089308Y0118030D01*
X0090925Y0118700D01*
X0091885Y0118700D01*
X0082200Y0128385D01*
X0082200Y0126263D01*
X0079037Y0123100D01*
X0074563Y0123100D01*
X0074376Y0123287D02*
X0067000Y0123287D01*
X0067000Y0123300D02*
X0071600Y0123300D01*
X0071600Y0125088D01*
X0068788Y0127900D01*
X0067000Y0127900D01*
X0067000Y0123300D01*
X0066600Y0123287D02*
X0060700Y0123287D01*
X0060700Y0124885D02*
X0062000Y0124885D01*
X0060700Y0126484D02*
X0063396Y0126484D01*
X0064812Y0129200D02*
X0062000Y0132012D01*
X0062000Y0133800D01*
X0066600Y0133800D01*
X0066600Y0134200D01*
X0066600Y0138800D01*
X0064812Y0138800D01*
X0062000Y0135988D01*
X0062000Y0134200D01*
X0066600Y0134200D01*
X0067000Y0134200D01*
X0067000Y0138800D01*
X0068788Y0138800D01*
X0071600Y0135988D01*
X0071600Y0134200D01*
X0067000Y0134200D01*
X0067000Y0133800D01*
X0071600Y0133800D01*
X0071600Y0132012D01*
X0068788Y0129200D01*
X0067000Y0129200D01*
X0067000Y0133800D01*
X0066600Y0133800D01*
X0066600Y0129200D01*
X0064812Y0129200D01*
X0064331Y0129681D02*
X0060700Y0129681D01*
X0060700Y0131279D02*
X0062732Y0131279D01*
X0062000Y0132878D02*
X0060700Y0132878D01*
X0060700Y0134476D02*
X0062000Y0134476D01*
X0062087Y0136075D02*
X0060700Y0136075D01*
X0060700Y0137673D02*
X0063685Y0137673D01*
X0064812Y0140000D02*
X0062000Y0142812D01*
X0062000Y0144600D01*
X0066600Y0144600D01*
X0066600Y0145000D01*
X0066600Y0149600D01*
X0064812Y0149600D01*
X0062000Y0146788D01*
X0062000Y0145000D01*
X0066600Y0145000D01*
X0067000Y0145000D01*
X0067000Y0149600D01*
X0068788Y0149600D01*
X0071600Y0146788D01*
X0071600Y0145000D01*
X0067000Y0145000D01*
X0067000Y0144600D01*
X0071600Y0144600D01*
X0071600Y0142812D01*
X0068788Y0140000D01*
X0067000Y0140000D01*
X0067000Y0144600D01*
X0066600Y0144600D01*
X0066600Y0140000D01*
X0064812Y0140000D01*
X0063941Y0140870D02*
X0060700Y0140870D01*
X0060700Y0139272D02*
X0071400Y0139272D01*
X0071400Y0140870D02*
X0069659Y0140870D01*
X0071257Y0142469D02*
X0072232Y0142469D01*
X0071600Y0144068D02*
X0073831Y0144068D01*
X0073797Y0145666D02*
X0071600Y0145666D01*
X0071124Y0147265D02*
X0072199Y0147265D01*
X0071400Y0148863D02*
X0069525Y0148863D01*
X0068788Y0150900D02*
X0071600Y0153712D01*
X0071600Y0155500D01*
X0067000Y0155500D01*
X0067000Y0155900D01*
X0066600Y0155900D01*
X0066600Y0160500D01*
X0064812Y0160500D01*
X0062000Y0157688D01*
X0062000Y0155900D01*
X0066600Y0155900D01*
X0066600Y0155500D01*
X0062000Y0155500D01*
X0062000Y0153712D01*
X0064812Y0150900D01*
X0066600Y0150900D01*
X0066600Y0155500D01*
X0067000Y0155500D01*
X0067000Y0150900D01*
X0068788Y0150900D01*
X0069948Y0152060D02*
X0071400Y0152060D01*
X0071400Y0150462D02*
X0060700Y0150462D01*
X0060700Y0152060D02*
X0063652Y0152060D01*
X0062053Y0153659D02*
X0060700Y0153659D01*
X0060700Y0155257D02*
X0062000Y0155257D01*
X0062000Y0156856D02*
X0060700Y0156856D01*
X0060700Y0158454D02*
X0062766Y0158454D01*
X0064364Y0160053D02*
X0060700Y0160053D01*
X0060700Y0161651D02*
X0071400Y0161651D01*
X0071400Y0160053D02*
X0069236Y0160053D01*
X0068788Y0160500D02*
X0067000Y0160500D01*
X0067000Y0155900D01*
X0071600Y0155900D01*
X0071600Y0157688D01*
X0068788Y0160500D01*
X0068788Y0161800D02*
X0071600Y0164612D01*
X0071600Y0166400D01*
X0067000Y0166400D01*
X0067000Y0166800D01*
X0066600Y0166800D01*
X0066600Y0171400D01*
X0064812Y0171400D01*
X0062000Y0168588D01*
X0062000Y0166800D01*
X0066600Y0166800D01*
X0066600Y0166400D01*
X0062000Y0166400D01*
X0062000Y0164612D01*
X0064812Y0161800D01*
X0066600Y0161800D01*
X0066600Y0166400D01*
X0067000Y0166400D01*
X0067000Y0161800D01*
X0068788Y0161800D01*
X0070238Y0163250D02*
X0071400Y0163250D01*
X0071600Y0164848D02*
X0072911Y0164848D01*
X0074510Y0166447D02*
X0067000Y0166447D01*
X0067000Y0166800D02*
X0071600Y0166800D01*
X0071600Y0168588D01*
X0068788Y0171400D01*
X0067000Y0171400D01*
X0067000Y0166800D01*
X0066600Y0166447D02*
X0060700Y0166447D01*
X0060700Y0164848D02*
X0062000Y0164848D01*
X0060700Y0163250D02*
X0063362Y0163250D01*
X0066600Y0163250D02*
X0067000Y0163250D01*
X0067000Y0164848D02*
X0066600Y0164848D01*
X0066600Y0168045D02*
X0067000Y0168045D01*
X0067000Y0169644D02*
X0066600Y0169644D01*
X0066600Y0171242D02*
X0067000Y0171242D01*
X0068946Y0171242D02*
X0071400Y0171242D01*
X0071400Y0172841D02*
X0065856Y0172841D01*
X0064654Y0171242D02*
X0064258Y0171242D01*
X0063055Y0169644D02*
X0062659Y0169644D01*
X0062000Y0168045D02*
X0061061Y0168045D01*
X0067455Y0174439D02*
X0071602Y0174439D01*
X0073201Y0176038D02*
X0069053Y0176038D01*
X0070652Y0177636D02*
X0096652Y0177636D01*
X0096150Y0176038D02*
X0080399Y0176038D01*
X0073118Y0168045D02*
X0071600Y0168045D01*
X0071520Y0169644D02*
X0070545Y0169644D01*
X0079090Y0166447D02*
X0102900Y0166447D01*
X0102900Y0168045D02*
X0101676Y0168045D01*
X0110700Y0168045D02*
X0112158Y0168045D01*
X0112000Y0166447D02*
X0110700Y0166447D01*
X0110700Y0164848D02*
X0112407Y0164848D01*
X0113562Y0163250D02*
X0110700Y0163250D01*
X0110700Y0161651D02*
X0114401Y0161651D01*
X0112416Y0160053D02*
X0110700Y0160053D01*
X0110700Y0158454D02*
X0111640Y0158454D01*
X0111400Y0156856D02*
X0110700Y0156856D01*
X0111358Y0155257D02*
X0111594Y0155257D01*
X0119468Y0152060D02*
X0174132Y0152060D01*
X0173741Y0152222D02*
X0174760Y0151800D01*
X0173741Y0151378D01*
X0172222Y0149859D01*
X0171400Y0147874D01*
X0171400Y0145726D01*
X0172222Y0143741D01*
X0173741Y0142222D01*
X0174760Y0141800D01*
X0173741Y0141378D01*
X0172222Y0139859D01*
X0171400Y0137874D01*
X0171400Y0135726D01*
X0172222Y0133741D01*
X0173741Y0132222D01*
X0174760Y0131800D01*
X0173741Y0131378D01*
X0172222Y0129859D01*
X0171400Y0127874D01*
X0171400Y0125726D01*
X0172222Y0123741D01*
X0173741Y0122222D01*
X0174760Y0121800D01*
X0173741Y0121378D01*
X0172222Y0119859D01*
X0171400Y0117874D01*
X0171400Y0115726D01*
X0172222Y0113741D01*
X0173741Y0112222D01*
X0174760Y0111800D01*
X0173741Y0111378D01*
X0172222Y0109859D01*
X0171400Y0107874D01*
X0171400Y0105726D01*
X0172222Y0103741D01*
X0173741Y0102222D01*
X0174760Y0101800D01*
X0173741Y0101378D01*
X0172737Y0100374D01*
X0172091Y0100106D01*
X0170994Y0099009D01*
X0163494Y0091509D01*
X0162900Y0090076D01*
X0162900Y0046024D01*
X0163494Y0044591D01*
X0164591Y0043494D01*
X0166024Y0042900D01*
X0181326Y0042900D01*
X0182759Y0043494D01*
X0183856Y0044591D01*
X0190106Y0050841D01*
X0190700Y0052274D01*
X0190700Y0057900D01*
X0195063Y0057900D01*
X0195741Y0057222D01*
X0197593Y0056455D01*
X0196957Y0056248D01*
X0196284Y0055905D01*
X0195673Y0055461D01*
X0195139Y0054927D01*
X0194695Y0054316D01*
X0194352Y0053643D01*
X0194118Y0052924D01*
X0194000Y0052178D01*
X0194000Y0052000D01*
X0201600Y0052000D01*
X0201600Y0051600D01*
X0202000Y0051600D01*
X0202000Y0052000D01*
X0209600Y0052000D01*
X0209600Y0052178D01*
X0209482Y0052924D01*
X0209248Y0053643D01*
X0208905Y0054316D01*
X0208461Y0054927D01*
X0207927Y0055461D01*
X0207316Y0055905D01*
X0206643Y0056248D01*
X0206007Y0056455D01*
X0207859Y0057222D01*
X0209378Y0058741D01*
X0210200Y0060726D01*
X0210200Y0062874D01*
X0209378Y0064859D01*
X0207859Y0066378D01*
X0206840Y0066800D01*
X0207859Y0067222D01*
X0209378Y0068741D01*
X0210200Y0070726D01*
X0210200Y0072874D01*
X0209378Y0074859D01*
X0207859Y0076378D01*
X0206840Y0076800D01*
X0207859Y0077222D01*
X0209378Y0078741D01*
X0210200Y0080726D01*
X0210200Y0082874D01*
X0209378Y0084859D01*
X0207859Y0086378D01*
X0206007Y0087145D01*
X0206643Y0087352D01*
X0207316Y0087695D01*
X0207927Y0088139D01*
X0208461Y0088673D01*
X0208905Y0089284D01*
X0209248Y0089957D01*
X0209482Y0090676D01*
X0209600Y0091422D01*
X0209600Y0091600D01*
X0202000Y0091600D01*
X0202000Y0092000D01*
X0209600Y0092000D01*
X0209600Y0092178D01*
X0209482Y0092924D01*
X0209248Y0093643D01*
X0208905Y0094316D01*
X0208461Y0094927D01*
X0207927Y0095461D01*
X0207316Y0095905D01*
X0206643Y0096248D01*
X0206007Y0096455D01*
X0207859Y0097222D01*
X0209378Y0098741D01*
X0210200Y0100726D01*
X0210200Y0102874D01*
X0209378Y0104859D01*
X0207859Y0106378D01*
X0206840Y0106800D01*
X0207859Y0107222D01*
X0209378Y0108741D01*
X0210200Y0110726D01*
X0210200Y0112874D01*
X0209378Y0114859D01*
X0207859Y0116378D01*
X0206840Y0116800D01*
X0207859Y0117222D01*
X0209378Y0118741D01*
X0210200Y0120726D01*
X0210200Y0122874D01*
X0209378Y0124859D01*
X0207859Y0126378D01*
X0206840Y0126800D01*
X0207859Y0127222D01*
X0209378Y0128741D01*
X0210200Y0130726D01*
X0210200Y0132874D01*
X0209378Y0134859D01*
X0207859Y0136378D01*
X0206007Y0137145D01*
X0206643Y0137352D01*
X0207316Y0137695D01*
X0207927Y0138139D01*
X0208461Y0138673D01*
X0208905Y0139284D01*
X0209248Y0139957D01*
X0209482Y0140676D01*
X0209600Y0141422D01*
X0209600Y0141600D01*
X0202000Y0141600D01*
X0202000Y0142000D01*
X0201600Y0142000D01*
X0201600Y0146600D01*
X0198422Y0146600D01*
X0197676Y0146482D01*
X0196957Y0146248D01*
X0196284Y0145905D01*
X0195673Y0145461D01*
X0195139Y0144927D01*
X0194695Y0144316D01*
X0194352Y0143643D01*
X0194118Y0142924D01*
X0194000Y0142178D01*
X0194000Y0142000D01*
X0201600Y0142000D01*
X0201600Y0141600D01*
X0194000Y0141600D01*
X0194000Y0141422D01*
X0194118Y0140676D01*
X0194352Y0139957D01*
X0194695Y0139284D01*
X0195139Y0138673D01*
X0195673Y0138139D01*
X0196284Y0137695D01*
X0196957Y0137352D01*
X0197593Y0137145D01*
X0195741Y0136378D01*
X0194222Y0134859D01*
X0193400Y0132874D01*
X0193400Y0130726D01*
X0194222Y0128741D01*
X0195741Y0127222D01*
X0196760Y0126800D01*
X0195741Y0126378D01*
X0194222Y0124859D01*
X0193400Y0122874D01*
X0193400Y0120726D01*
X0194222Y0118741D01*
X0195741Y0117222D01*
X0196760Y0116800D01*
X0195741Y0116378D01*
X0194222Y0114859D01*
X0193400Y0112874D01*
X0193400Y0110726D01*
X0194222Y0108741D01*
X0195741Y0107222D01*
X0196760Y0106800D01*
X0196519Y0106700D01*
X0195080Y0106700D01*
X0192950Y0108830D01*
X0192950Y0157775D01*
X0192204Y0159576D01*
X0182204Y0169576D01*
X0180826Y0170954D01*
X0179899Y0171338D01*
X0179859Y0171378D01*
X0178840Y0171800D01*
X0179859Y0172222D01*
X0181378Y0173741D01*
X0182200Y0175726D01*
X0182200Y0177874D01*
X0181378Y0179859D01*
X0179859Y0181378D01*
X0178007Y0182145D01*
X0178643Y0182352D01*
X0179316Y0182695D01*
X0179927Y0183139D01*
X0180461Y0183673D01*
X0180905Y0184284D01*
X0181248Y0184957D01*
X0181482Y0185676D01*
X0181600Y0186422D01*
X0181600Y0186600D01*
X0177000Y0186600D01*
X0177000Y0187000D01*
X0181600Y0187000D01*
X0181600Y0187178D01*
X0181482Y0187924D01*
X0181248Y0188643D01*
X0180905Y0189316D01*
X0180461Y0189927D01*
X0179927Y0190461D01*
X0179316Y0190905D01*
X0178643Y0191248D01*
X0178007Y0191455D01*
X0179859Y0192222D01*
X0181378Y0193741D01*
X0182200Y0195726D01*
X0182200Y0197874D01*
X0181378Y0199859D01*
X0179859Y0201378D01*
X0177874Y0202200D01*
X0175726Y0202200D01*
X0173741Y0201378D01*
X0172222Y0199859D01*
X0171400Y0197874D01*
X0171400Y0195726D01*
X0172222Y0193741D01*
X0173741Y0192222D01*
X0175593Y0191455D01*
X0174957Y0191248D01*
X0174284Y0190905D01*
X0173673Y0190461D01*
X0173139Y0189927D01*
X0172695Y0189316D01*
X0172352Y0188643D01*
X0172118Y0187924D01*
X0172000Y0187178D01*
X0172000Y0187000D01*
X0176600Y0187000D01*
X0176600Y0186600D01*
X0172000Y0186600D01*
X0172000Y0186422D01*
X0172118Y0185676D01*
X0172352Y0184957D01*
X0172695Y0184284D01*
X0173139Y0183673D01*
X0173673Y0183139D01*
X0174284Y0182695D01*
X0174957Y0182352D01*
X0175593Y0182145D01*
X0173741Y0181378D01*
X0172222Y0179859D01*
X0171400Y0177874D01*
X0171400Y0175726D01*
X0172222Y0173741D01*
X0173741Y0172222D01*
X0174760Y0171800D01*
X0173741Y0171378D01*
X0172222Y0169859D01*
X0171400Y0167874D01*
X0171400Y0165726D01*
X0172222Y0163741D01*
X0173741Y0162222D01*
X0174760Y0161800D01*
X0173741Y0161378D01*
X0172222Y0159859D01*
X0171400Y0157874D01*
X0171400Y0155726D01*
X0172222Y0153741D01*
X0173741Y0152222D01*
X0172825Y0150462D02*
X0120775Y0150462D01*
X0121790Y0148863D02*
X0171810Y0148863D01*
X0171400Y0147265D02*
X0122200Y0147265D01*
X0122175Y0145666D02*
X0171425Y0145666D01*
X0172087Y0144068D02*
X0121513Y0144068D01*
X0120106Y0142469D02*
X0173494Y0142469D01*
X0173234Y0140870D02*
X0120366Y0140870D01*
X0121621Y0139272D02*
X0171979Y0139272D01*
X0171400Y0137673D02*
X0122200Y0137673D01*
X0122200Y0136075D02*
X0171400Y0136075D01*
X0171918Y0134476D02*
X0121682Y0134476D01*
X0120515Y0132878D02*
X0173085Y0132878D01*
X0173643Y0131279D02*
X0119957Y0131279D01*
X0121452Y0129681D02*
X0172148Y0129681D01*
X0171486Y0128082D02*
X0122114Y0128082D01*
X0122200Y0126484D02*
X0171400Y0126484D01*
X0171748Y0124885D02*
X0121852Y0124885D01*
X0120924Y0123287D02*
X0172676Y0123287D01*
X0174491Y0121688D02*
X0119109Y0121688D01*
X0121147Y0120090D02*
X0172453Y0120090D01*
X0171656Y0118491D02*
X0121944Y0118491D01*
X0122200Y0116893D02*
X0171400Y0116893D01*
X0171579Y0115294D02*
X0122021Y0115294D01*
X0121333Y0113696D02*
X0172267Y0113696D01*
X0174042Y0112097D02*
X0119558Y0112097D01*
X0120738Y0110499D02*
X0172862Y0110499D01*
X0171825Y0108900D02*
X0121775Y0108900D01*
X0122200Y0107302D02*
X0171400Y0107302D01*
X0171409Y0105703D02*
X0122191Y0105703D01*
X0121528Y0104105D02*
X0172071Y0104105D01*
X0173457Y0102506D02*
X0120143Y0102506D01*
X0120329Y0100908D02*
X0173271Y0100908D01*
X0171294Y0099309D02*
X0121606Y0099309D01*
X0122200Y0097711D02*
X0169695Y0097711D01*
X0168097Y0096112D02*
X0122200Y0096112D01*
X0121698Y0094514D02*
X0166498Y0094514D01*
X0164900Y0092915D02*
X0120552Y0092915D01*
X0119920Y0091317D02*
X0163414Y0091317D01*
X0162900Y0089718D02*
X0121436Y0089718D01*
X0122098Y0088120D02*
X0162900Y0088120D01*
X0162900Y0086521D02*
X0122200Y0086521D01*
X0121867Y0084923D02*
X0162900Y0084923D01*
X0162900Y0083324D02*
X0120961Y0083324D01*
X0119019Y0081726D02*
X0162900Y0081726D01*
X0162900Y0080127D02*
X0121110Y0080127D01*
X0121929Y0078529D02*
X0162900Y0078529D01*
X0162900Y0076930D02*
X0122200Y0076930D01*
X0122037Y0075332D02*
X0162900Y0075332D01*
X0162900Y0073733D02*
X0121370Y0073733D01*
X0119647Y0072134D02*
X0162900Y0072134D01*
X0162900Y0070536D02*
X0120701Y0070536D01*
X0121760Y0068937D02*
X0162900Y0068937D01*
X0162900Y0067339D02*
X0122200Y0067339D01*
X0122200Y0065740D02*
X0162900Y0065740D01*
X0162900Y0064142D02*
X0123723Y0064142D01*
X0125322Y0062543D02*
X0162900Y0062543D01*
X0162900Y0060945D02*
X0126590Y0060945D01*
X0126950Y0059346D02*
X0162900Y0059346D01*
X0162900Y0057748D02*
X0126950Y0057748D01*
X0126950Y0056149D02*
X0162900Y0056149D01*
X0162900Y0054551D02*
X0126950Y0054551D01*
X0126950Y0052952D02*
X0162900Y0052952D01*
X0162900Y0051354D02*
X0126569Y0051354D01*
X0125271Y0049755D02*
X0162900Y0049755D01*
X0162900Y0048157D02*
X0123672Y0048157D01*
X0122074Y0046558D02*
X0162900Y0046558D01*
X0163341Y0044960D02*
X0120475Y0044960D01*
X0118877Y0043361D02*
X0164911Y0043361D01*
X0182439Y0043361D02*
X0215701Y0043361D01*
X0215701Y0041763D02*
X0117278Y0041763D01*
X0115680Y0040164D02*
X0215701Y0040164D01*
X0215701Y0038566D02*
X0114081Y0038566D01*
X0112483Y0036967D02*
X0215701Y0036967D01*
X0215701Y0035369D02*
X0204866Y0035369D01*
X0203630Y0035700D02*
X0199970Y0035700D01*
X0196435Y0034753D01*
X0193265Y0032923D01*
X0190677Y0030335D01*
X0188847Y0027165D01*
X0187900Y0023630D01*
X0187900Y0019970D01*
X0188847Y0016435D01*
X0190677Y0013265D01*
X0193265Y0010677D01*
X0196435Y0008847D01*
X0199970Y0007900D01*
X0203630Y0007900D01*
X0207165Y0008847D01*
X0210335Y0010677D01*
X0212923Y0013265D01*
X0214753Y0016435D01*
X0215700Y0019970D01*
X0215700Y0023630D01*
X0214753Y0027165D01*
X0212923Y0030335D01*
X0210335Y0032923D01*
X0207165Y0034753D01*
X0203630Y0035700D01*
X0208867Y0033770D02*
X0215701Y0033770D01*
X0215701Y0032172D02*
X0211086Y0032172D01*
X0212684Y0030573D02*
X0215701Y0030573D01*
X0215701Y0028975D02*
X0213708Y0028975D01*
X0214631Y0027376D02*
X0215701Y0027376D01*
X0215701Y0025778D02*
X0215125Y0025778D01*
X0215553Y0024179D02*
X0215701Y0024179D01*
X0215700Y0022581D02*
X0215701Y0022581D01*
X0215700Y0020982D02*
X0215701Y0020982D01*
X0215701Y0019384D02*
X0215543Y0019384D01*
X0215701Y0017785D02*
X0215115Y0017785D01*
X0214609Y0016187D02*
X0215701Y0016187D01*
X0215701Y0014588D02*
X0213687Y0014588D01*
X0212647Y0012990D02*
X0215701Y0012990D01*
X0215701Y0011391D02*
X0211049Y0011391D01*
X0208802Y0009793D02*
X0215701Y0009793D01*
X0215701Y0008194D02*
X0204727Y0008194D01*
X0198873Y0008194D02*
X0082651Y0008194D01*
X0083456Y0009793D02*
X0194797Y0009793D01*
X0192551Y0011391D02*
X0083885Y0011391D01*
X0084200Y0012990D02*
X0093878Y0012990D01*
X0093673Y0013139D02*
X0094284Y0012695D01*
X0094957Y0012352D01*
X0095676Y0012118D01*
X0096422Y0012000D01*
X0096600Y0012000D01*
X0096600Y0016600D01*
X0092000Y0016600D01*
X0092000Y0016422D01*
X0092118Y0015676D01*
X0092352Y0014957D01*
X0092695Y0014284D01*
X0093139Y0013673D01*
X0093673Y0013139D01*
X0092540Y0014588D02*
X0084200Y0014588D01*
X0084105Y0016187D02*
X0092037Y0016187D01*
X0092096Y0017785D02*
X0083677Y0017785D01*
X0083126Y0019384D02*
X0092744Y0019384D01*
X0094435Y0020982D02*
X0082203Y0020982D01*
X0080956Y0022581D02*
X0093383Y0022581D01*
X0091784Y0024179D02*
X0079316Y0024179D01*
X0076501Y0025778D02*
X0091400Y0025778D01*
X0091400Y0027376D02*
X0031600Y0027376D01*
X0031600Y0025778D02*
X0067099Y0025778D01*
X0064284Y0024179D02*
X0031600Y0024179D01*
X0031600Y0022581D02*
X0062644Y0022581D01*
X0061397Y0020982D02*
X0031600Y0020982D01*
X0031600Y0019384D02*
X0060474Y0019384D01*
X0059923Y0017785D02*
X0031600Y0017785D01*
X0031600Y0016187D02*
X0059495Y0016187D01*
X0059400Y0014588D02*
X0031600Y0014588D01*
X0031600Y0012990D02*
X0059400Y0012990D01*
X0059715Y0011391D02*
X0031600Y0011391D01*
X0031600Y0009793D02*
X0060144Y0009793D01*
X0060949Y0008194D02*
X0031600Y0008194D01*
X0031600Y0028975D02*
X0091400Y0028975D01*
X0092936Y0030573D02*
X0031600Y0030573D01*
X0031600Y0032172D02*
X0094535Y0032172D01*
X0098255Y0033770D02*
X0031600Y0033770D01*
X0031600Y0035369D02*
X0099853Y0035369D01*
X0101452Y0036967D02*
X0079804Y0036967D01*
X0081402Y0038566D02*
X0103050Y0038566D01*
X0104649Y0040164D02*
X0082200Y0040164D01*
X0082278Y0041763D02*
X0106247Y0041763D01*
X0107846Y0043361D02*
X0083877Y0043361D01*
X0085475Y0044960D02*
X0109444Y0044960D01*
X0111043Y0046558D02*
X0087074Y0046558D01*
X0088672Y0048157D02*
X0112641Y0048157D01*
X0114240Y0049755D02*
X0090174Y0049755D01*
X0090700Y0051354D02*
X0115838Y0051354D01*
X0112632Y0052952D02*
X0090700Y0052952D01*
X0090700Y0054551D02*
X0111034Y0054551D01*
X0109435Y0056149D02*
X0090700Y0056149D01*
X0090700Y0057748D02*
X0107837Y0057748D01*
X0106238Y0059346D02*
X0090700Y0059346D01*
X0090700Y0060945D02*
X0104640Y0060945D01*
X0103041Y0062543D02*
X0090700Y0062543D01*
X0090700Y0064142D02*
X0101443Y0064142D01*
X0099844Y0065740D02*
X0090700Y0065740D01*
X0090700Y0067339D02*
X0098246Y0067339D01*
X0096647Y0068937D02*
X0090700Y0068937D01*
X0090700Y0070536D02*
X0095049Y0070536D01*
X0093450Y0072134D02*
X0090700Y0072134D01*
X0090700Y0073733D02*
X0091852Y0073733D01*
X0082900Y0056149D02*
X0080787Y0056149D01*
X0082200Y0054551D02*
X0082900Y0054551D01*
X0082437Y0052952D02*
X0082200Y0052952D01*
X0072197Y0038566D02*
X0031600Y0038566D01*
X0031600Y0036967D02*
X0073796Y0036967D01*
X0096600Y0016187D02*
X0097000Y0016187D01*
X0097000Y0016600D02*
X0097000Y0012000D01*
X0097178Y0012000D01*
X0097924Y0012118D01*
X0098643Y0012352D01*
X0099316Y0012695D01*
X0099927Y0013139D01*
X0100461Y0013673D01*
X0100905Y0014284D01*
X0101248Y0014957D01*
X0101482Y0015676D01*
X0101600Y0016422D01*
X0101600Y0016600D01*
X0097000Y0016600D01*
X0097000Y0014588D02*
X0096600Y0014588D01*
X0096600Y0012990D02*
X0097000Y0012990D01*
X0099722Y0012990D02*
X0103822Y0012990D01*
X0104812Y0012000D02*
X0106600Y0012000D01*
X0106600Y0016600D01*
X0102000Y0016600D01*
X0102000Y0014812D01*
X0104812Y0012000D01*
X0106600Y0012990D02*
X0107000Y0012990D01*
X0107000Y0012000D02*
X0108788Y0012000D01*
X0111600Y0014812D01*
X0111600Y0016600D01*
X0107000Y0016600D01*
X0107000Y0012000D01*
X0107000Y0014588D02*
X0106600Y0014588D01*
X0106600Y0016187D02*
X0107000Y0016187D01*
X0109778Y0012990D02*
X0113822Y0012990D01*
X0114812Y0012000D02*
X0112000Y0014812D01*
X0112000Y0016600D01*
X0116600Y0016600D01*
X0116600Y0012000D01*
X0114812Y0012000D01*
X0116600Y0012990D02*
X0117000Y0012990D01*
X0117000Y0012000D02*
X0118788Y0012000D01*
X0121600Y0014812D01*
X0121600Y0016600D01*
X0117000Y0016600D01*
X0117000Y0012000D01*
X0117000Y0014588D02*
X0116600Y0014588D01*
X0116600Y0016187D02*
X0117000Y0016187D01*
X0119778Y0012990D02*
X0190953Y0012990D01*
X0189913Y0014588D02*
X0121376Y0014588D01*
X0121600Y0016187D02*
X0188991Y0016187D01*
X0188485Y0017785D02*
X0121600Y0017785D01*
X0121005Y0019384D02*
X0188057Y0019384D01*
X0187900Y0020982D02*
X0119406Y0020982D01*
X0120217Y0022581D02*
X0187900Y0022581D01*
X0188047Y0024179D02*
X0121816Y0024179D01*
X0122200Y0025778D02*
X0188475Y0025778D01*
X0188969Y0027376D02*
X0122200Y0027376D01*
X0122200Y0028975D02*
X0189892Y0028975D01*
X0190916Y0030573D02*
X0120664Y0030573D01*
X0119065Y0032172D02*
X0192514Y0032172D01*
X0194733Y0033770D02*
X0109286Y0033770D01*
X0109065Y0032172D02*
X0114535Y0032172D01*
X0112936Y0030573D02*
X0110664Y0030573D01*
X0110884Y0035369D02*
X0198734Y0035369D01*
X0185824Y0046558D02*
X0215701Y0046558D01*
X0215701Y0044960D02*
X0184225Y0044960D01*
X0187422Y0048157D02*
X0195655Y0048157D01*
X0195673Y0048139D02*
X0196284Y0047695D01*
X0196957Y0047352D01*
X0197676Y0047118D01*
X0198422Y0047000D01*
X0201600Y0047000D01*
X0201600Y0051600D01*
X0194000Y0051600D01*
X0194000Y0051422D01*
X0194118Y0050676D01*
X0194352Y0049957D01*
X0194695Y0049284D01*
X0195139Y0048673D01*
X0195673Y0048139D01*
X0194455Y0049755D02*
X0189021Y0049755D01*
X0190319Y0051354D02*
X0194011Y0051354D01*
X0194127Y0052952D02*
X0190700Y0052952D01*
X0190700Y0054551D02*
X0194866Y0054551D01*
X0196763Y0056149D02*
X0190700Y0056149D01*
X0190700Y0057748D02*
X0195215Y0057748D01*
X0201600Y0051354D02*
X0202000Y0051354D01*
X0202000Y0051600D02*
X0202000Y0047000D01*
X0205178Y0047000D01*
X0205924Y0047118D01*
X0206643Y0047352D01*
X0207316Y0047695D01*
X0207927Y0048139D01*
X0208461Y0048673D01*
X0208905Y0049284D01*
X0209248Y0049957D01*
X0209482Y0050676D01*
X0209600Y0051422D01*
X0209600Y0051600D01*
X0202000Y0051600D01*
X0202000Y0049755D02*
X0201600Y0049755D01*
X0201600Y0048157D02*
X0202000Y0048157D01*
X0207945Y0048157D02*
X0215701Y0048157D01*
X0215701Y0049755D02*
X0209145Y0049755D01*
X0209589Y0051354D02*
X0215701Y0051354D01*
X0215701Y0052952D02*
X0209473Y0052952D01*
X0208734Y0054551D02*
X0215701Y0054551D01*
X0215701Y0056149D02*
X0206837Y0056149D01*
X0208385Y0057748D02*
X0215701Y0057748D01*
X0215701Y0059346D02*
X0209629Y0059346D01*
X0210200Y0060945D02*
X0215701Y0060945D01*
X0215701Y0062543D02*
X0210200Y0062543D01*
X0209675Y0064142D02*
X0215701Y0064142D01*
X0215701Y0065740D02*
X0208496Y0065740D01*
X0207976Y0067339D02*
X0215701Y0067339D01*
X0215701Y0068937D02*
X0209459Y0068937D01*
X0210121Y0070536D02*
X0215701Y0070536D01*
X0215701Y0072134D02*
X0210200Y0072134D01*
X0209844Y0073733D02*
X0215701Y0073733D01*
X0215701Y0075332D02*
X0208905Y0075332D01*
X0207154Y0076930D02*
X0215701Y0076930D01*
X0215701Y0078529D02*
X0209165Y0078529D01*
X0209952Y0080127D02*
X0215701Y0080127D01*
X0215701Y0081726D02*
X0210200Y0081726D01*
X0210014Y0083324D02*
X0215701Y0083324D01*
X0215701Y0084923D02*
X0209314Y0084923D01*
X0207513Y0086521D02*
X0215701Y0086521D01*
X0215701Y0088120D02*
X0207901Y0088120D01*
X0209126Y0089718D02*
X0215701Y0089718D01*
X0215701Y0091317D02*
X0209583Y0091317D01*
X0209483Y0092915D02*
X0215701Y0092915D01*
X0215701Y0094514D02*
X0208762Y0094514D01*
X0206910Y0096112D02*
X0215701Y0096112D01*
X0215701Y0097711D02*
X0208347Y0097711D01*
X0209613Y0099309D02*
X0215701Y0099309D01*
X0215701Y0100908D02*
X0210200Y0100908D01*
X0210200Y0102506D02*
X0215701Y0102506D01*
X0215701Y0104105D02*
X0209690Y0104105D01*
X0208534Y0105703D02*
X0215701Y0105703D01*
X0215701Y0107302D02*
X0207938Y0107302D01*
X0209444Y0108900D02*
X0215701Y0108900D01*
X0215701Y0110499D02*
X0210106Y0110499D01*
X0210200Y0112097D02*
X0215701Y0112097D01*
X0215701Y0113696D02*
X0209860Y0113696D01*
X0208942Y0115294D02*
X0215701Y0115294D01*
X0215701Y0116893D02*
X0207064Y0116893D01*
X0209128Y0118491D02*
X0215701Y0118491D01*
X0215701Y0120090D02*
X0209937Y0120090D01*
X0210200Y0121688D02*
X0215701Y0121688D01*
X0215701Y0123287D02*
X0210029Y0123287D01*
X0209351Y0124885D02*
X0215701Y0124885D01*
X0215701Y0126484D02*
X0207603Y0126484D01*
X0208719Y0128082D02*
X0215701Y0128082D01*
X0215701Y0129681D02*
X0209767Y0129681D01*
X0210200Y0131279D02*
X0215701Y0131279D01*
X0215701Y0132878D02*
X0210198Y0132878D01*
X0209536Y0134476D02*
X0215701Y0134476D01*
X0215701Y0136075D02*
X0208162Y0136075D01*
X0207274Y0137673D02*
X0215701Y0137673D01*
X0215701Y0139272D02*
X0208896Y0139272D01*
X0209513Y0140870D02*
X0215701Y0140870D01*
X0215701Y0142469D02*
X0209554Y0142469D01*
X0209600Y0142178D02*
X0209482Y0142924D01*
X0209248Y0143643D01*
X0208905Y0144316D01*
X0208461Y0144927D01*
X0207927Y0145461D01*
X0207316Y0145905D01*
X0206643Y0146248D01*
X0205924Y0146482D01*
X0205178Y0146600D01*
X0202000Y0146600D01*
X0202000Y0142000D01*
X0209600Y0142000D01*
X0209600Y0142178D01*
X0209032Y0144068D02*
X0215701Y0144068D01*
X0215701Y0145666D02*
X0207645Y0145666D01*
X0202000Y0145666D02*
X0201600Y0145666D01*
X0201600Y0144068D02*
X0202000Y0144068D01*
X0202000Y0142469D02*
X0201600Y0142469D01*
X0195955Y0145666D02*
X0192950Y0145666D01*
X0192950Y0144068D02*
X0194568Y0144068D01*
X0194046Y0142469D02*
X0192950Y0142469D01*
X0192950Y0140870D02*
X0194087Y0140870D01*
X0194704Y0139272D02*
X0192950Y0139272D01*
X0192950Y0137673D02*
X0196326Y0137673D01*
X0195438Y0136075D02*
X0192950Y0136075D01*
X0192950Y0134476D02*
X0194064Y0134476D01*
X0193402Y0132878D02*
X0192950Y0132878D01*
X0192950Y0131279D02*
X0193400Y0131279D01*
X0193833Y0129681D02*
X0192950Y0129681D01*
X0192950Y0128082D02*
X0194881Y0128082D01*
X0195997Y0126484D02*
X0192950Y0126484D01*
X0192950Y0124885D02*
X0194249Y0124885D01*
X0193571Y0123287D02*
X0192950Y0123287D01*
X0192950Y0121688D02*
X0193400Y0121688D01*
X0193663Y0120090D02*
X0192950Y0120090D01*
X0192950Y0118491D02*
X0194472Y0118491D01*
X0192950Y0116893D02*
X0196536Y0116893D01*
X0194658Y0115294D02*
X0192950Y0115294D01*
X0192950Y0113696D02*
X0193740Y0113696D01*
X0193400Y0112097D02*
X0192950Y0112097D01*
X0192950Y0110499D02*
X0193494Y0110499D01*
X0192950Y0108900D02*
X0194156Y0108900D01*
X0194478Y0107302D02*
X0195661Y0107302D01*
X0196519Y0096900D02*
X0192075Y0096900D01*
X0190700Y0097470D01*
X0190700Y0075700D01*
X0195063Y0075700D01*
X0195741Y0076378D01*
X0196760Y0076800D01*
X0195741Y0077222D01*
X0194222Y0078741D01*
X0193400Y0080726D01*
X0193400Y0082874D01*
X0194222Y0084859D01*
X0195741Y0086378D01*
X0197593Y0087145D01*
X0196957Y0087352D01*
X0196284Y0087695D01*
X0195673Y0088139D01*
X0195139Y0088673D01*
X0194695Y0089284D01*
X0194352Y0089957D01*
X0194118Y0090676D01*
X0194000Y0091422D01*
X0194000Y0091600D01*
X0201600Y0091600D01*
X0201600Y0092000D01*
X0194000Y0092000D01*
X0194000Y0092178D01*
X0194118Y0092924D01*
X0194352Y0093643D01*
X0194695Y0094316D01*
X0195139Y0094927D01*
X0195673Y0095461D01*
X0196284Y0095905D01*
X0196957Y0096248D01*
X0197593Y0096455D01*
X0196519Y0096900D01*
X0196690Y0096112D02*
X0190700Y0096112D01*
X0190700Y0094514D02*
X0194838Y0094514D01*
X0194117Y0092915D02*
X0190700Y0092915D01*
X0190700Y0091317D02*
X0194017Y0091317D01*
X0194474Y0089718D02*
X0190700Y0089718D01*
X0190700Y0088120D02*
X0195699Y0088120D01*
X0196087Y0086521D02*
X0190700Y0086521D01*
X0190700Y0084923D02*
X0194286Y0084923D01*
X0193586Y0083324D02*
X0190700Y0083324D01*
X0190700Y0081726D02*
X0193400Y0081726D01*
X0193648Y0080127D02*
X0190700Y0080127D01*
X0190700Y0078529D02*
X0194435Y0078529D01*
X0196446Y0076930D02*
X0190700Y0076930D01*
X0192950Y0147265D02*
X0215701Y0147265D01*
X0215701Y0148863D02*
X0192950Y0148863D01*
X0192950Y0150462D02*
X0215701Y0150462D01*
X0215701Y0152060D02*
X0192950Y0152060D01*
X0192950Y0153659D02*
X0215701Y0153659D01*
X0215701Y0155257D02*
X0192950Y0155257D01*
X0192950Y0156856D02*
X0215701Y0156856D01*
X0215701Y0158454D02*
X0192669Y0158454D01*
X0191727Y0160053D02*
X0215701Y0160053D01*
X0215701Y0161651D02*
X0190128Y0161651D01*
X0188530Y0163250D02*
X0215701Y0163250D01*
X0215701Y0164848D02*
X0186931Y0164848D01*
X0185333Y0166447D02*
X0215701Y0166447D01*
X0215701Y0168045D02*
X0183734Y0168045D01*
X0182204Y0169576D02*
X0182204Y0169576D01*
X0182136Y0169644D02*
X0215701Y0169644D01*
X0215701Y0171242D02*
X0180130Y0171242D01*
X0180477Y0172841D02*
X0215701Y0172841D01*
X0215701Y0174439D02*
X0181667Y0174439D01*
X0182200Y0176038D02*
X0215701Y0176038D01*
X0215701Y0177636D02*
X0182200Y0177636D01*
X0181636Y0179235D02*
X0195764Y0179235D01*
X0196435Y0178847D02*
X0199970Y0177900D01*
X0203630Y0177900D01*
X0207165Y0178847D01*
X0210335Y0180677D01*
X0212923Y0183265D01*
X0214753Y0186435D01*
X0215700Y0189970D01*
X0215700Y0193630D01*
X0214753Y0197165D01*
X0212923Y0200335D01*
X0210335Y0202923D01*
X0207165Y0204753D01*
X0203630Y0205700D01*
X0199970Y0205700D01*
X0196435Y0204753D01*
X0193265Y0202923D01*
X0190677Y0200335D01*
X0188847Y0197165D01*
X0187900Y0193630D01*
X0187900Y0189970D01*
X0188847Y0186435D01*
X0190677Y0183265D01*
X0193265Y0180677D01*
X0196435Y0178847D01*
X0193109Y0180833D02*
X0180403Y0180833D01*
X0178800Y0182432D02*
X0191511Y0182432D01*
X0190235Y0184030D02*
X0180721Y0184030D01*
X0181466Y0185629D02*
X0189313Y0185629D01*
X0188635Y0187227D02*
X0181592Y0187227D01*
X0181155Y0188826D02*
X0188207Y0188826D01*
X0187900Y0190424D02*
X0179964Y0190424D01*
X0179378Y0192023D02*
X0187900Y0192023D01*
X0187900Y0193621D02*
X0181258Y0193621D01*
X0181990Y0195220D02*
X0188326Y0195220D01*
X0188754Y0196818D02*
X0182200Y0196818D01*
X0181975Y0198417D02*
X0189570Y0198417D01*
X0190493Y0200015D02*
X0181221Y0200015D01*
X0179289Y0201614D02*
X0191956Y0201614D01*
X0193767Y0203212D02*
X0083616Y0203212D01*
X0084044Y0201614D02*
X0114311Y0201614D01*
X0112379Y0200015D02*
X0084200Y0200015D01*
X0084200Y0198417D02*
X0111625Y0198417D01*
X0111400Y0196818D02*
X0083946Y0196818D01*
X0083517Y0195220D02*
X0111610Y0195220D01*
X0112342Y0193621D02*
X0082782Y0193621D01*
X0081859Y0192023D02*
X0114222Y0192023D01*
X0112788Y0190424D02*
X0080361Y0190424D01*
X0078285Y0188826D02*
X0111794Y0188826D01*
X0111400Y0187227D02*
X0074281Y0187227D01*
X0082994Y0204811D02*
X0196652Y0204811D01*
X0206948Y0204811D02*
X0215701Y0204811D01*
X0215701Y0206409D02*
X0082071Y0206409D01*
X0107748Y0185629D02*
X0111440Y0185629D01*
X0112102Y0184030D02*
X0110085Y0184030D01*
X0110700Y0182432D02*
X0113531Y0182432D01*
X0113197Y0180833D02*
X0110700Y0180833D01*
X0110700Y0179235D02*
X0111964Y0179235D01*
X0111400Y0177636D02*
X0110700Y0177636D01*
X0110700Y0176038D02*
X0111400Y0176038D01*
X0111933Y0174439D02*
X0110700Y0174439D01*
X0110700Y0172841D02*
X0113123Y0172841D01*
X0114945Y0171242D02*
X0110700Y0171242D01*
X0110700Y0169644D02*
X0112933Y0169644D01*
X0118655Y0171242D02*
X0173605Y0171242D01*
X0173123Y0172841D02*
X0120477Y0172841D01*
X0121667Y0174439D02*
X0171933Y0174439D01*
X0171400Y0176038D02*
X0122200Y0176038D01*
X0122200Y0177636D02*
X0171400Y0177636D01*
X0171964Y0179235D02*
X0121636Y0179235D01*
X0120403Y0180833D02*
X0173197Y0180833D01*
X0174800Y0182432D02*
X0120069Y0182432D01*
X0121498Y0184030D02*
X0172879Y0184030D01*
X0172134Y0185629D02*
X0122160Y0185629D01*
X0122200Y0187227D02*
X0172008Y0187227D01*
X0172445Y0188826D02*
X0121806Y0188826D01*
X0120812Y0190424D02*
X0173636Y0190424D01*
X0174222Y0192023D02*
X0119378Y0192023D01*
X0121258Y0193621D02*
X0172342Y0193621D01*
X0171610Y0195220D02*
X0121990Y0195220D01*
X0122200Y0196818D02*
X0171400Y0196818D01*
X0171625Y0198417D02*
X0121975Y0198417D01*
X0121221Y0200015D02*
X0172379Y0200015D01*
X0174311Y0201614D02*
X0119289Y0201614D01*
X0120667Y0169644D02*
X0172133Y0169644D01*
X0171471Y0168045D02*
X0121442Y0168045D01*
X0121600Y0166447D02*
X0171400Y0166447D01*
X0171764Y0164848D02*
X0121193Y0164848D01*
X0120038Y0163250D02*
X0172714Y0163250D01*
X0174401Y0161651D02*
X0119199Y0161651D01*
X0121184Y0160053D02*
X0172416Y0160053D01*
X0171640Y0158454D02*
X0121960Y0158454D01*
X0122200Y0156856D02*
X0171400Y0156856D01*
X0171594Y0155257D02*
X0122006Y0155257D01*
X0121295Y0153659D02*
X0172305Y0153659D01*
X0207836Y0179235D02*
X0215701Y0179235D01*
X0215701Y0180833D02*
X0210491Y0180833D01*
X0212089Y0182432D02*
X0215701Y0182432D01*
X0215701Y0184030D02*
X0213364Y0184030D01*
X0214287Y0185629D02*
X0215701Y0185629D01*
X0215701Y0187227D02*
X0214965Y0187227D01*
X0215393Y0188826D02*
X0215701Y0188826D01*
X0215700Y0190424D02*
X0215701Y0190424D01*
X0215700Y0192023D02*
X0215701Y0192023D01*
X0215700Y0193621D02*
X0215701Y0193621D01*
X0215701Y0195220D02*
X0215274Y0195220D01*
X0214846Y0196818D02*
X0215701Y0196818D01*
X0215701Y0198417D02*
X0214030Y0198417D01*
X0213107Y0200015D02*
X0215701Y0200015D01*
X0215701Y0201614D02*
X0211644Y0201614D01*
X0209833Y0203212D02*
X0215701Y0203212D01*
X0097900Y0157900D02*
X0097900Y0136215D01*
X0082200Y0151915D01*
X0082200Y0152537D01*
X0079037Y0155700D01*
X0074563Y0155700D01*
X0079037Y0155700D01*
X0081237Y0157900D01*
X0097900Y0157900D01*
X0097900Y0156856D02*
X0080192Y0156856D01*
X0079480Y0155257D02*
X0097900Y0155257D01*
X0097900Y0153659D02*
X0081078Y0153659D01*
X0082200Y0152060D02*
X0097900Y0152060D01*
X0097900Y0150462D02*
X0083654Y0150462D01*
X0085252Y0148863D02*
X0097900Y0148863D01*
X0097900Y0147265D02*
X0086851Y0147265D01*
X0088449Y0145666D02*
X0097900Y0145666D01*
X0097900Y0144068D02*
X0090048Y0144068D01*
X0091646Y0142469D02*
X0097900Y0142469D01*
X0097900Y0140870D02*
X0093245Y0140870D01*
X0094843Y0139272D02*
X0097900Y0139272D01*
X0097900Y0137673D02*
X0096442Y0137673D01*
X0084101Y0126484D02*
X0082200Y0126484D01*
X0082200Y0128082D02*
X0082502Y0128082D01*
X0080822Y0124885D02*
X0085699Y0124885D01*
X0087298Y0123287D02*
X0079224Y0123287D01*
X0080707Y0121688D02*
X0088896Y0121688D01*
X0090495Y0120090D02*
X0082776Y0120090D01*
X0084374Y0118491D02*
X0090421Y0118491D01*
X0088170Y0116893D02*
X0085973Y0116893D01*
X0072778Y0124885D02*
X0071600Y0124885D01*
X0071400Y0126484D02*
X0070204Y0126484D01*
X0071400Y0128082D02*
X0060700Y0128082D01*
X0066600Y0126484D02*
X0067000Y0126484D01*
X0067000Y0124885D02*
X0066600Y0124885D01*
X0066600Y0121688D02*
X0067000Y0121688D01*
X0067000Y0120090D02*
X0066600Y0120090D01*
X0066600Y0118491D02*
X0067000Y0118491D01*
X0067000Y0116893D02*
X0066600Y0116893D01*
X0066600Y0115294D02*
X0067000Y0115294D01*
X0067000Y0113696D02*
X0066600Y0113696D01*
X0064705Y0116893D02*
X0060700Y0116893D01*
X0060700Y0118491D02*
X0064620Y0118491D01*
X0063022Y0120090D02*
X0060700Y0120090D01*
X0060700Y0121688D02*
X0062000Y0121688D01*
X0063106Y0115294D02*
X0060700Y0115294D01*
X0060700Y0113696D02*
X0062000Y0113696D01*
X0066600Y0110499D02*
X0067000Y0110499D01*
X0067000Y0108900D02*
X0066600Y0108900D01*
X0067000Y0106200D02*
X0067000Y0101600D01*
X0071600Y0101600D01*
X0071600Y0103388D01*
X0068788Y0106200D01*
X0067000Y0106200D01*
X0067000Y0105703D02*
X0066600Y0105703D01*
X0066600Y0104105D02*
X0067000Y0104105D01*
X0067000Y0102506D02*
X0066600Y0102506D01*
X0066600Y0100908D02*
X0067000Y0100908D01*
X0067000Y0099309D02*
X0066600Y0099309D01*
X0066600Y0097711D02*
X0067000Y0097711D01*
X0067000Y0094514D02*
X0066600Y0094514D01*
X0066600Y0092915D02*
X0067000Y0092915D01*
X0067000Y0091317D02*
X0066600Y0091317D01*
X0066600Y0089718D02*
X0067000Y0089718D01*
X0067000Y0088120D02*
X0066600Y0088120D01*
X0066600Y0086521D02*
X0067000Y0086521D01*
X0063701Y0097711D02*
X0060700Y0097711D01*
X0060700Y0099309D02*
X0062103Y0099309D01*
X0062000Y0100908D02*
X0060700Y0100908D01*
X0060700Y0102506D02*
X0062000Y0102506D01*
X0062717Y0104105D02*
X0060700Y0104105D01*
X0060700Y0105703D02*
X0064315Y0105703D01*
X0069285Y0105703D02*
X0071400Y0105703D01*
X0071859Y0104105D02*
X0070883Y0104105D01*
X0071600Y0102506D02*
X0073457Y0102506D01*
X0074171Y0100908D02*
X0071600Y0100908D01*
X0071497Y0099309D02*
X0072572Y0099309D01*
X0071400Y0129681D02*
X0069269Y0129681D01*
X0070868Y0131279D02*
X0071943Y0131279D01*
X0071600Y0132878D02*
X0073541Y0132878D01*
X0074087Y0134476D02*
X0071600Y0134476D01*
X0071513Y0136075D02*
X0072488Y0136075D01*
X0071400Y0137673D02*
X0069915Y0137673D01*
X0067000Y0137673D02*
X0066600Y0137673D01*
X0066600Y0136075D02*
X0067000Y0136075D01*
X0067000Y0134476D02*
X0066600Y0134476D01*
X0066600Y0132878D02*
X0067000Y0132878D01*
X0067000Y0131279D02*
X0066600Y0131279D01*
X0066600Y0129681D02*
X0067000Y0129681D01*
X0067000Y0140870D02*
X0066600Y0140870D01*
X0066600Y0142469D02*
X0067000Y0142469D01*
X0067000Y0144068D02*
X0066600Y0144068D01*
X0066600Y0145666D02*
X0067000Y0145666D01*
X0067000Y0147265D02*
X0066600Y0147265D01*
X0066600Y0148863D02*
X0067000Y0148863D01*
X0064075Y0148863D02*
X0060700Y0148863D01*
X0060700Y0147265D02*
X0062476Y0147265D01*
X0062000Y0145666D02*
X0060700Y0145666D01*
X0060700Y0144068D02*
X0062000Y0144068D01*
X0062343Y0142469D02*
X0060700Y0142469D01*
X0066600Y0152060D02*
X0067000Y0152060D01*
X0067000Y0153659D02*
X0066600Y0153659D01*
X0066600Y0155257D02*
X0067000Y0155257D01*
X0067000Y0156856D02*
X0066600Y0156856D01*
X0066600Y0158454D02*
X0067000Y0158454D01*
X0067000Y0160053D02*
X0066600Y0160053D01*
X0070834Y0158454D02*
X0071809Y0158454D01*
X0071600Y0156856D02*
X0073408Y0156856D01*
X0074120Y0155257D02*
X0071600Y0155257D01*
X0071547Y0153659D02*
X0072522Y0153659D01*
X0100217Y0022581D02*
X0103383Y0022581D01*
X0104194Y0020982D02*
X0099165Y0020982D01*
X0100856Y0019384D02*
X0102595Y0019384D01*
X0102000Y0017785D02*
X0101504Y0017785D01*
X0101563Y0016187D02*
X0102000Y0016187D01*
X0102224Y0014588D02*
X0101060Y0014588D01*
X0109406Y0020982D02*
X0114194Y0020982D01*
X0113383Y0022581D02*
X0110217Y0022581D01*
X0111005Y0019384D02*
X0112595Y0019384D01*
X0112000Y0017785D02*
X0111600Y0017785D01*
X0111600Y0016187D02*
X0112000Y0016187D01*
X0112224Y0014588D02*
X0111376Y0014588D01*
D17*
X0161800Y0021800D03*
X0141800Y0081800D03*
X0098050Y0084300D03*
X0091800Y0114300D03*
X0106800Y0129300D03*
X0086800Y0151800D03*
X0100550Y0175550D03*
X0136800Y0156800D03*
X0156800Y0186800D03*
X0196800Y0171800D03*
X0051800Y0031800D03*
X0046800Y0181800D03*
D18*
X0056800Y0169300D02*
X0069300Y0181800D01*
X0106800Y0181800D01*
X0106800Y0154300D01*
X0114300Y0146800D01*
X0116800Y0146800D01*
X0101800Y0134300D02*
X0101800Y0161800D01*
X0076800Y0161800D01*
X0076800Y0161100D01*
X0076800Y0150550D02*
X0076800Y0150300D01*
X0076800Y0150550D02*
X0078050Y0150550D01*
X0104300Y0124300D01*
X0104300Y0076800D01*
X0116800Y0076800D01*
X0116800Y0066800D02*
X0116800Y0065550D01*
X0123050Y0059300D01*
X0123050Y0053050D01*
X0096800Y0026800D01*
X0076800Y0041600D02*
X0076800Y0041800D01*
X0086800Y0051800D01*
X0086800Y0110550D01*
X0079300Y0118050D01*
X0076800Y0118050D01*
X0076800Y0117700D01*
X0091800Y0114300D02*
X0091800Y0079300D01*
X0115550Y0055550D01*
X0116800Y0055550D01*
X0116800Y0056800D01*
X0098050Y0084300D02*
X0098050Y0118050D01*
X0076800Y0139300D01*
X0076800Y0139400D01*
X0101800Y0134300D02*
X0106800Y0129300D01*
X0100550Y0171800D02*
X0076800Y0171800D01*
X0076800Y0172000D01*
X0056800Y0169300D02*
X0056800Y0058050D01*
X0066800Y0048050D01*
X0066800Y0047000D01*
X0076800Y0074200D02*
X0076800Y0074300D01*
X0078050Y0075550D01*
X0078050Y0084300D01*
X0076800Y0085550D01*
X0076800Y0085100D01*
X0166800Y0089300D02*
X0166800Y0046800D01*
X0180550Y0046800D01*
X0186800Y0053050D01*
X0186800Y0061800D01*
X0201800Y0061800D01*
X0201800Y0071800D02*
X0186800Y0071800D01*
X0186800Y0099300D01*
X0179300Y0106800D01*
X0176800Y0106800D01*
X0176800Y0096800D02*
X0174300Y0096800D01*
X0166800Y0089300D01*
X0100550Y0171800D02*
X0100550Y0175550D01*
M02*
